# xmcd CD database file
#
# Track frame offsets:
#	150
#	54014
#	109139
#	168239
#
# Disc length: 2965 seconds
#
# Revision: 0
# Processed by: cddbd v1.5.2PL0 Copyright (c) Steve Scherf et al.
# Submitted via: CDex 1.50Beta7
#
DISCID=250b9304
DTITLE=Détente Fraicheur - mélodie nature
DYEAR=2001
DGENRE=New Age
TTITLE0=le chant de la source
TTITLE1=calme et fraicheur
TTITLE2=matin celtique
TTITLE3=le chant du sous-bois
EXTD=YEAR: 2001
EXTT0=
EXTT1=
EXTT2=
EXTT3=
PLAYORDER=
